<svg width="549" height="130" viewBox="0 0 549 130" fill="none" xmlns="http://www.w3.org/2000/svg">
<path d="M33.491 104.284C27.499 104.284 21.7567 103.499 16.264 101.93C10.7713 100.289 6.34867 98.185 2.996 95.617L8.881 82.563C12.091 84.8457 15.8717 86.736 20.223 88.234C24.6457 89.6607 29.104 90.374 33.598 90.374C37.022 90.374 39.7683 90.053 41.837 89.411C43.977 88.6977 45.5463 87.7347 46.545 86.522C47.5437 85.3093 48.043 83.9183 48.043 82.349C48.043 80.3517 47.2583 78.7823 45.689 77.641C44.1197 76.4283 42.051 75.4653 39.483 74.752C36.915 73.9673 34.0617 73.254 30.923 72.612C27.8557 71.8987 24.7527 71.0427 21.614 70.044C18.5467 69.0453 15.729 67.7613 13.161 66.192C10.593 64.6227 8.48867 62.554 6.848 59.986C5.27867 57.418 4.494 54.1367 4.494 50.142C4.494 45.862 5.63533 41.9743 7.918 38.479C10.272 34.9123 13.7673 32.0947 18.404 30.026C23.112 27.886 28.997 26.816 36.059 26.816C40.767 26.816 45.4037 27.3867 49.969 28.528C54.5343 29.598 58.5647 31.2387 62.06 33.45L56.71 46.611C53.2147 44.6137 49.7193 43.1513 46.224 42.224C42.7287 41.2253 39.3047 40.726 35.952 40.726C32.5993 40.726 29.853 41.1183 27.713 41.903C25.573 42.6877 24.0393 43.722 23.112 45.006C22.1847 46.2187 21.721 47.6453 21.721 49.286C21.721 51.212 22.5057 52.7813 24.075 53.994C25.6443 55.1353 27.713 56.0627 30.281 56.776C32.849 57.4893 35.6667 58.2027 38.734 58.916C41.8727 59.6293 44.9757 60.4497 48.043 61.377C51.1817 62.3043 54.035 63.5527 56.603 65.122C59.171 66.6913 61.2397 68.76 62.809 71.328C64.4497 73.896 65.27 77.1417 65.27 81.065C65.27 85.2737 64.093 89.1257 61.739 92.621C59.385 96.1163 55.854 98.934 51.146 101.074C46.5093 103.214 40.6243 104.284 33.491 104.284ZM111.247 103V91.765L110.177 89.304V69.188C110.177 65.6213 109.072 62.8393 106.86 60.842C104.72 58.8447 101.403 57.846 96.9094 57.846C93.8421 57.846 90.8104 58.3453 87.8144 59.344C84.8897 60.2713 82.3931 61.5553 80.3244 63.196L74.3324 51.533C77.4711 49.3217 81.2517 47.6097 85.6744 46.397C90.0971 45.1843 94.5911 44.578 99.1564 44.578C107.93 44.578 114.743 46.6467 119.593 50.784C124.444 54.9213 126.869 61.377 126.869 70.151V103H111.247ZM93.6994 103.856C89.2054 103.856 85.3534 103.107 82.1434 101.609C78.9334 100.04 76.4724 97.9353 74.7604 95.296C73.0484 92.6567 72.1924 89.6963 72.1924 86.415C72.1924 82.991 73.0127 79.995 74.6534 77.427C76.3654 74.859 79.0404 72.8617 82.6784 71.435C86.3164 69.937 91.0601 69.188 96.9094 69.188H112.21V78.925H98.7284C94.8051 78.925 92.0944 79.567 90.5964 80.851C89.1697 82.135 88.4564 83.74 88.4564 85.666C88.4564 87.806 89.2767 89.518 90.9174 90.802C92.6294 92.0147 94.9477 92.621 97.8724 92.621C100.654 92.621 103.151 91.979 105.362 90.695C107.574 89.3397 109.179 87.378 110.177 84.81L112.745 92.514C111.533 96.2233 109.321 99.041 106.111 100.967C102.901 102.893 98.7641 103.856 93.6994 103.856ZM144.009 103V44.15C144.009 37.6587 145.935 32.487 149.787 28.635C153.639 24.7117 159.132 22.75 166.265 22.75C168.691 22.75 171.009 22.9997 173.22 23.499C175.503 23.9983 177.429 24.783 178.998 25.853L174.611 37.944C173.684 37.302 172.65 36.8027 171.508 36.446C170.367 36.0893 169.154 35.911 167.87 35.911C165.445 35.911 163.555 36.6243 162.199 38.051C160.915 39.4063 160.273 41.475 160.273 44.257V49.607L160.701 56.776V103H144.009ZM135.128 59.558V46.718H175.039V59.558H135.128ZM211.193 103.856C204.63 103.856 198.852 102.572 193.859 100.004C188.937 97.436 185.121 93.9407 182.41 89.518C179.699 85.024 178.344 79.9237 178.344 74.217C178.344 68.439 179.664 63.3387 182.303 58.916C185.014 54.422 188.687 50.9267 193.324 48.43C197.961 45.862 203.204 44.578 209.053 44.578C214.688 44.578 219.753 45.7907 224.247 48.216C228.812 50.57 232.415 53.994 235.054 58.488C237.693 62.9107 239.013 68.225 239.013 74.431C239.013 75.073 238.977 75.822 238.906 76.678C238.835 77.4627 238.763 78.2117 238.692 78.925H191.933V69.188H229.918L223.498 72.077C223.498 69.081 222.892 66.4773 221.679 64.266C220.466 62.0547 218.79 60.3427 216.65 59.13C214.51 57.846 212.013 57.204 209.16 57.204C206.307 57.204 203.774 57.846 201.563 59.13C199.423 60.3427 197.747 62.0903 196.534 64.373C195.321 66.5843 194.715 69.2237 194.715 72.291V74.859C194.715 77.9977 195.393 80.7797 196.748 83.205C198.175 85.559 200.136 87.378 202.633 88.662C205.201 89.8747 208.197 90.481 211.621 90.481C214.688 90.481 217.363 90.0173 219.646 89.09C222 88.1627 224.14 86.7717 226.066 84.917L234.947 94.547C232.308 97.543 228.991 99.8613 224.996 101.502C221.001 103.071 216.4 103.856 211.193 103.856Z" fill="url(#paint0_linear_9_17)"/>
<path d="M276.491 104.284C270.499 104.284 264.757 103.499 259.264 101.93C253.771 100.289 249.349 98.185 245.996 95.617L251.881 82.563C255.091 84.8457 258.872 86.736 263.223 88.234C267.646 89.6607 272.104 90.374 276.598 90.374C280.022 90.374 282.768 90.053 284.837 89.411C286.977 88.6977 288.546 87.7347 289.545 86.522C290.544 85.3093 291.043 83.9183 291.043 82.349C291.043 80.3517 290.258 78.7823 288.689 77.641C287.12 76.4283 285.051 75.4653 282.483 74.752C279.915 73.9673 277.062 73.254 273.923 72.612C270.856 71.8987 267.753 71.0427 264.614 70.044C261.547 69.0453 258.729 67.7613 256.161 66.192C253.593 64.6227 251.489 62.554 249.848 59.986C248.279 57.418 247.494 54.1367 247.494 50.142C247.494 45.862 248.635 41.9743 250.918 38.479C253.272 34.9123 256.767 32.0947 261.404 30.026C266.112 27.886 271.997 26.816 279.059 26.816C283.767 26.816 288.404 27.3867 292.969 28.528C297.534 29.598 301.565 31.2387 305.06 33.45L299.71 46.611C296.215 44.6137 292.719 43.1513 289.224 42.224C285.729 41.2253 282.305 40.726 278.952 40.726C275.599 40.726 272.853 41.1183 270.713 41.903C268.573 42.6877 267.039 43.722 266.112 45.006C265.185 46.2187 264.721 47.6453 264.721 49.286C264.721 51.212 265.506 52.7813 267.075 53.994C268.644 55.1353 270.713 56.0627 273.281 56.776C275.849 57.4893 278.667 58.2027 281.734 58.916C284.873 59.6293 287.976 60.4497 291.043 61.377C294.182 62.3043 297.035 63.5527 299.603 65.122C302.171 66.6913 304.24 68.76 305.809 71.328C307.45 73.896 308.27 77.1417 308.27 81.065C308.27 85.2737 307.093 89.1257 304.739 92.621C302.385 96.1163 298.854 98.934 294.146 101.074C289.509 103.214 283.624 104.284 276.491 104.284ZM331.053 103L310.295 45.434H326.024L343.251 94.975H335.761L353.737 45.434H367.861L385.302 94.975H377.812L395.574 45.434H410.34L389.475 103H373.318L358.017 60.521H362.939L347.103 103H331.053ZM451.53 103V91.765L450.46 89.304V69.188C450.46 65.6213 449.354 62.8393 447.143 60.842C445.003 58.8447 441.686 57.846 437.192 57.846C434.124 57.846 431.093 58.3453 428.097 59.344C425.172 60.2713 422.675 61.5553 420.607 63.196L414.615 51.533C417.753 49.3217 421.534 47.6097 425.957 46.397C430.379 45.1843 434.873 44.578 439.439 44.578C448.213 44.578 455.025 46.6467 459.876 50.784C464.726 54.9213 467.152 61.377 467.152 70.151V103H451.53ZM433.982 103.856C429.488 103.856 425.636 103.107 422.426 101.609C419.216 100.04 416.755 97.9353 415.043 95.296C413.331 92.6567 412.475 89.6963 412.475 86.415C412.475 82.991 413.295 79.995 414.936 77.427C416.648 74.859 419.323 72.8617 422.961 71.435C426.599 69.937 431.342 69.188 437.192 69.188H452.493V78.925H439.011C435.087 78.925 432.377 79.567 430.879 80.851C429.452 82.135 428.739 83.74 428.739 85.666C428.739 87.806 429.559 89.518 431.2 90.802C432.912 92.0147 435.23 92.621 438.155 92.621C440.937 92.621 443.433 91.979 445.645 90.695C447.856 89.3397 449.461 87.378 450.46 84.81L453.028 92.514C451.815 96.2233 449.604 99.041 446.394 100.967C443.184 102.893 439.046 103.856 433.982 103.856ZM516.285 103.856C511.434 103.856 507.19 102.786 503.552 100.646C499.914 98.506 497.06 95.2603 494.992 90.909C492.994 86.4863 491.996 80.9223 491.996 74.217C491.996 67.4403 492.959 61.8763 494.885 57.525C496.811 53.1737 499.593 49.928 503.231 47.788C506.869 45.648 511.22 44.578 516.285 44.578C521.706 44.578 526.557 45.8263 530.837 48.323C535.188 50.7483 538.612 54.1723 541.109 58.595C543.677 63.0177 544.961 68.225 544.961 74.217C544.961 80.2803 543.677 85.5233 541.109 89.946C538.612 94.3687 535.188 97.7927 530.837 100.218C526.557 102.643 521.706 103.856 516.285 103.856ZM482.259 123.758V45.434H498.202V57.204L497.881 74.324L498.951 91.337V123.758H482.259ZM513.396 90.16C516.178 90.16 518.639 89.518 520.779 88.234C522.99 86.95 524.738 85.131 526.022 82.777C527.377 80.3517 528.055 77.4983 528.055 74.217C528.055 70.8643 527.377 68.011 526.022 65.657C524.738 63.303 522.99 61.484 520.779 60.2C518.639 58.916 516.178 58.274 513.396 58.274C510.614 58.274 508.117 58.916 505.906 60.2C503.694 61.484 501.947 63.303 500.663 65.657C499.379 68.011 498.737 70.8643 498.737 74.217C498.737 77.4983 499.379 80.3517 500.663 82.777C501.947 85.131 503.694 86.95 505.906 88.234C508.117 89.518 510.614 90.16 513.396 90.16Z" fill="url(#paint1_linear_9_17)"/>
<defs>
<linearGradient id="paint0_linear_9_17" x1="0" y1="65" x2="243" y2="65" gradientUnits="userSpaceOnUse">
<stop offset="0.11" stop-color="white"/>
<stop offset="0.635" stop-color="#666666"/>
</linearGradient>
<linearGradient id="paint1_linear_9_17" x1="243" y1="65" x2="549" y2="65" gradientUnits="userSpaceOnUse">
<stop offset="0.11" stop-color="white"/>
<stop offset="0.63" stop-color="#666666"/>
</linearGradient>
</defs>
</svg>
